<svg xmlns="http://www.w3.org/2000/svg" viewBox="0 0 900 504" width="900" height="504"><rect width="900" height="504" fill="#2A2E33" opacity="0.04"/><g transform="translate(11,8) scale(1.0000)"><rect x="57.60" y="42.24" width="12.80" height="43.52" rx="3.84" fill="#C2C9D1" stroke="#6B7480" stroke-width="1.2"/></g><text x="75" y="154" font-family="sans-serif" font-size="20" fill="#888" text-anchor="middle">二等兵</text><g transform="translate(161,8) scale(1.0000)"><rect x="46.72" y="42.24" width="12.80" height="43.52" rx="3.84" fill="#C2C9D1" stroke="#6B7480" stroke-width="1.2"/><rect x="68.48" y="42.24" width="12.80" height="43.52" rx="3.84" fill="#C2C9D1" stroke="#6B7480" stroke-width="1.2"/></g><text x="225" y="154" font-family="sans-serif" font-size="20" fill="#888" text-anchor="middle">一等兵</text><g transform="translate(311,8) scale(1.0000)"><rect x="35.84" y="42.24" width="12.80" height="43.52" rx="3.84" fill="#C2C9D1" stroke="#6B7480" stroke-width="1.2"/><rect x="57.60" y="42.24" width="12.80" height="43.52" rx="3.84" fill="#C2C9D1" stroke="#6B7480" stroke-width="1.2"/><rect x="79.36" y="42.24" width="12.80" height="43.52" rx="3.84" fill="#C2C9D1" stroke="#6B7480" stroke-width="1.2"/></g><text x="375" y="154" font-family="sans-serif" font-size="20" fill="#888" text-anchor="middle">上等兵</text><g transform="translate(461,8) scale(1.0000)"><rect x="24.96" y="42.24" width="12.80" height="43.52" rx="3.84" fill="#C2C9D1" stroke="#6B7480" stroke-width="1.2"/><rect x="46.72" y="42.24" width="12.80" height="43.52" rx="3.84" fill="#C2C9D1" stroke="#6B7480" stroke-width="1.2"/><rect x="68.48" y="42.24" width="12.80" height="43.52" rx="3.84" fill="#C2C9D1" stroke="#6B7480" stroke-width="1.2"/><rect x="90.24" y="42.24" width="12.80" height="43.52" rx="3.84" fill="#C2C9D1" stroke="#6B7480" stroke-width="1.2"/></g><text x="525" y="154" font-family="sans-serif" font-size="20" fill="#888" text-anchor="middle">兵長</text><g transform="translate(611,8) scale(1.0000)"><polygon points="25.60,58.88 36.48,58.88 64.00,84.48 91.52,58.88 102.40,58.88 64.00,99.71" fill="#C2C9D1" stroke="#6B7480" stroke-width="1.2" stroke-linejoin="round"/></g><text x="675" y="154" font-family="sans-serif" font-size="20" fill="#888" text-anchor="middle">伍長</text><g transform="translate(761,8) scale(1.0000)"><polygon points="25.60,58.88 36.48,58.88 64.00,84.48 91.52,58.88 102.40,58.88 64.00,99.71" fill="#C2C9D1" stroke="#6B7480" stroke-width="1.2" stroke-linejoin="round"/><polygon points="25.60,41.60 36.48,41.60 64.00,67.20 91.52,41.60 102.40,41.60 64.00,82.43" fill="#C2C9D1" stroke="#6B7480" stroke-width="1.2" stroke-linejoin="round"/></g><text x="825" y="154" font-family="sans-serif" font-size="20" fill="#888" text-anchor="middle">軍曹</text><g transform="translate(11,176) scale(1.0000)"><polygon points="25.60,58.88 36.48,58.88 64.00,84.48 91.52,58.88 102.40,58.88 64.00,99.71" fill="#C2C9D1" stroke="#6B7480" stroke-width="1.2" stroke-linejoin="round"/><polygon points="25.60,41.60 36.48,41.60 64.00,67.20 91.52,41.60 102.40,41.60 64.00,82.43" fill="#C2C9D1" stroke="#6B7480" stroke-width="1.2" stroke-linejoin="round"/><polygon points="25.60,24.32 36.48,24.32 64.00,49.92 91.52,24.32 102.40,24.32 64.00,65.15" fill="#C2C9D1" stroke="#6B7480" stroke-width="1.2" stroke-linejoin="round"/></g><text x="75" y="322" font-family="sans-serif" font-size="20" fill="#888" text-anchor="middle">曹長</text><g transform="translate(161,176) scale(1.0000)"><rect x="55.68" y="25.60" width="16.64" height="76.80" rx="6.66" fill="#C2C9D1" stroke="#6B7480" stroke-width="1.2"/><polygon points="64.00,48.64 74.75,64.00 64.00,79.36 53.25,64.00" fill="#E6EAEF" stroke="#6B7480" stroke-width="1.2"/></g><text x="225" y="322" font-family="sans-serif" font-size="20" fill="#888" text-anchor="middle">准尉</text><g transform="translate(311,176) scale(1.0000)"><polygon points="64.00,47.36 68.11,58.35 79.83,58.86 70.65,66.16 73.78,77.46 64.00,70.99 54.22,77.46 57.35,66.16 48.17,58.86 59.89,58.35" fill="#E6EAEF" stroke="#6B7480" stroke-width="1.2" stroke-linejoin="round"/></g><text x="375" y="322" font-family="sans-serif" font-size="20" fill="#888" text-anchor="middle">少尉</text><g transform="translate(461,176) scale(1.0000)"><polygon points="46.53,47.36 50.64,58.35 62.35,58.86 53.17,66.16 56.31,77.46 46.53,70.99 36.75,77.46 39.88,66.16 30.70,58.86 42.42,58.35" fill="#E6EAEF" stroke="#6B7480" stroke-width="1.2" stroke-linejoin="round"/><polygon points="81.47,47.36 85.58,58.35 97.30,58.86 88.12,66.16 91.25,77.46 81.47,70.99 71.69,77.46 74.83,66.16 65.65,58.86 77.36,58.35" fill="#E6EAEF" stroke="#6B7480" stroke-width="1.2" stroke-linejoin="round"/></g><text x="525" y="322" font-family="sans-serif" font-size="20" fill="#888" text-anchor="middle">大尉</text><g transform="translate(611,176) scale(1.0000)"><polygon points="64.00,42.24 68.11,53.23 79.83,53.74 70.65,61.04 73.78,72.34 64.00,65.87 54.22,72.34 57.35,61.04 48.17,53.74 59.89,53.23" fill="#E6EAEF" stroke="#6B7480" stroke-width="1.2" stroke-linejoin="round"/><rect x="38.40" y="89.60" width="51.20" height="6.40" rx="2" fill="#C2C9D1"/></g><text x="675" y="322" font-family="sans-serif" font-size="20" fill="#888" text-anchor="middle">少佐</text><g transform="translate(761,176) scale(1.0000)"><polygon points="46.53,42.24 50.64,53.23 62.35,53.74 53.17,61.04 56.31,72.34 46.53,65.87 36.75,72.34 39.88,61.04 30.70,53.74 42.42,53.23" fill="#E6EAEF" stroke="#6B7480" stroke-width="1.2" stroke-linejoin="round"/><polygon points="81.47,42.24 85.58,53.23 97.30,53.74 88.12,61.04 91.25,72.34 81.47,65.87 71.69,72.34 74.83,61.04 65.65,53.74 77.36,53.23" fill="#E6EAEF" stroke="#6B7480" stroke-width="1.2" stroke-linejoin="round"/><rect x="38.40" y="89.60" width="51.20" height="6.40" rx="2" fill="#C2C9D1"/></g><text x="825" y="322" font-family="sans-serif" font-size="20" fill="#888" text-anchor="middle">大佐</text><g transform="translate(11,344) scale(1.0000)"><circle cx="64.0" cy="64.0" r="53.76" fill="none" stroke="#6B7480" stroke-width="9.60"/><circle cx="64.0" cy="64.0" r="53.76" fill="none" stroke="#C2C9D1" stroke-width="3.84"/><polygon points="64.00,49.92 67.48,59.22 77.39,59.65 69.62,65.83 72.28,75.39 64.00,69.91 55.72,75.39 58.38,65.83 50.61,59.65 60.52,59.22" fill="#E6EAEF" stroke="#6B7480" stroke-width="1.2" stroke-linejoin="round"/></g><text x="75" y="490" font-family="sans-serif" font-size="20" fill="#888" text-anchor="middle">准将</text><g transform="translate(161,344) scale(1.0000)"><circle cx="64.0" cy="64.0" r="53.76" fill="none" stroke="#6B7480" stroke-width="9.60"/><circle cx="64.0" cy="64.0" r="53.76" fill="none" stroke="#C2C9D1" stroke-width="3.84"/><polygon points="49.22,49.92 52.69,59.22 62.61,59.65 54.84,65.83 57.49,75.39 49.22,69.91 40.94,75.39 43.59,65.83 35.83,59.65 45.74,59.22" fill="#E6EAEF" stroke="#6B7480" stroke-width="1.2" stroke-linejoin="round"/><polygon points="78.78,49.92 82.26,59.22 92.17,59.65 84.41,65.83 87.06,75.39 78.78,69.91 70.51,75.39 73.16,65.83 65.39,59.65 75.31,59.22" fill="#E6EAEF" stroke="#6B7480" stroke-width="1.2" stroke-linejoin="round"/></g><text x="225" y="490" font-family="sans-serif" font-size="20" fill="#888" text-anchor="middle">少将</text><g transform="translate(311,344) scale(1.0000)"><circle cx="64.0" cy="64.0" r="53.76" fill="none" stroke="#6B7480" stroke-width="9.60"/><circle cx="64.0" cy="64.0" r="53.76" fill="none" stroke="#C2C9D1" stroke-width="3.84"/><polygon points="64.00,36.54 67.48,45.84 77.39,46.27 69.62,52.45 72.28,62.01 64.00,56.54 55.72,62.01 58.38,52.45 50.61,46.27 60.52,45.84" fill="#E6EAEF" stroke="#6B7480" stroke-width="1.2" stroke-linejoin="round"/><polygon points="49.92,59.78 53.40,69.07 63.31,69.51 55.54,75.68 58.20,85.25 49.92,79.77 41.64,85.25 44.30,75.68 36.53,69.51 46.44,69.07" fill="#E6EAEF" stroke="#6B7480" stroke-width="1.2" stroke-linejoin="round"/><polygon points="78.08,59.78 81.56,69.07 91.47,69.51 83.70,75.68 86.36,85.25 78.08,79.77 69.80,85.25 72.46,75.68 64.69,69.51 74.60,69.07" fill="#E6EAEF" stroke="#6B7480" stroke-width="1.2" stroke-linejoin="round"/></g><text x="375" y="490" font-family="sans-serif" font-size="20" fill="#888" text-anchor="middle">中将</text><g transform="translate(461,344) scale(1.0000)"><circle cx="64.0" cy="64.0" r="53.76" fill="none" stroke="#6B7480" stroke-width="9.60"/><circle cx="64.0" cy="64.0" r="53.76" fill="none" stroke="#C2C9D1" stroke-width="3.84"/><polygon points="49.22,36.54 52.69,45.84 62.61,46.27 54.84,52.45 57.49,62.01 49.22,56.54 40.94,62.01 43.59,52.45 35.83,46.27 45.74,45.84" fill="#E6EAEF" stroke="#6B7480" stroke-width="1.2" stroke-linejoin="round"/><polygon points="78.78,36.54 82.26,45.84 92.17,46.27 84.41,52.45 87.06,62.01 78.78,56.54 70.51,62.01 73.16,52.45 65.39,46.27 75.31,45.84" fill="#E6EAEF" stroke="#6B7480" stroke-width="1.2" stroke-linejoin="round"/><polygon points="49.22,63.30 52.69,72.59 62.61,73.03 54.84,79.20 57.49,88.77 49.22,83.29 40.94,88.77 43.59,79.20 35.83,73.03 45.74,72.59" fill="#E6EAEF" stroke="#6B7480" stroke-width="1.2" stroke-linejoin="round"/><polygon points="78.78,63.30 82.26,72.59 92.17,73.03 84.41,79.20 87.06,88.77 78.78,83.29 70.51,88.77 73.16,79.20 65.39,73.03 75.31,72.59" fill="#E6EAEF" stroke="#6B7480" stroke-width="1.2" stroke-linejoin="round"/></g><text x="525" y="490" font-family="sans-serif" font-size="20" fill="#888" text-anchor="middle">大将</text><g transform="translate(611,344) scale(1.0000)"><circle cx="64.0" cy="64.0" r="53.76" fill="none" stroke="#6B7480" stroke-width="9.60"/><circle cx="64.0" cy="64.0" r="53.76" fill="none" stroke="#C2C9D1" stroke-width="3.84"/><polygon points="64.00,49.92 67.48,59.22 77.39,59.65 69.62,65.83 72.28,75.39 64.00,69.91 55.72,75.39 58.38,65.83 50.61,59.65 60.52,59.22" fill="#E6EAEF" stroke="#6B7480" stroke-width="1.2" stroke-linejoin="round"/><polygon points="46.40,35.56 49.60,44.11 58.72,44.51 51.57,50.19 54.01,58.99 46.40,53.95 38.79,58.99 41.23,50.19 34.08,44.51 43.20,44.11" fill="#E6EAEF" stroke="#6B7480" stroke-width="1.2" stroke-linejoin="round"/><polygon points="81.60,35.56 84.80,44.11 93.92,44.51 86.77,50.19 89.21,58.99 81.60,53.95 73.99,58.99 76.43,50.19 69.28,44.51 78.40,44.11" fill="#E6EAEF" stroke="#6B7480" stroke-width="1.2" stroke-linejoin="round"/><polygon points="46.40,66.53 49.60,75.09 58.72,75.49 51.57,81.17 54.01,89.97 46.40,84.93 38.79,89.97 41.23,81.17 34.08,75.49 43.20,75.09" fill="#E6EAEF" stroke="#6B7480" stroke-width="1.2" stroke-linejoin="round"/><polygon points="81.60,66.53 84.80,75.09 93.92,75.49 86.77,81.17 89.21,89.97 81.60,84.93 73.99,89.97 76.43,81.17 69.28,75.49 78.40,75.09" fill="#E6EAEF" stroke="#6B7480" stroke-width="1.2" stroke-linejoin="round"/></g><text x="675" y="490" font-family="sans-serif" font-size="20" fill="#888" text-anchor="middle">上級大将</text><g transform="translate(761,344) scale(1.0000)"><circle cx="64.0" cy="64.0" r="53.76" fill="none" stroke="#6B7480" stroke-width="9.60"/><circle cx="64.0" cy="64.0" r="53.76" fill="none" stroke="#C2C9D1" stroke-width="3.84"/><line x1="22.06" y1="34.63" x2="105.94" y2="93.37" stroke="#6B7480" stroke-width="5.76" stroke-linecap="round"/><circle cx="22.06" cy="34.63" r="4.48" fill="#C2C9D1" stroke="#C2C9D1" stroke-width="1"/><circle cx="105.94" cy="93.37" r="4.48" fill="#C2C9D1" stroke="#C2C9D1" stroke-width="1"/><line x1="22.06" y1="93.37" x2="105.94" y2="34.63" stroke="#6B7480" stroke-width="5.76" stroke-linecap="round"/><circle cx="22.06" cy="93.37" r="4.48" fill="#C2C9D1" stroke="#C2C9D1" stroke-width="1"/><circle cx="105.94" cy="34.63" r="4.48" fill="#C2C9D1" stroke="#C2C9D1" stroke-width="1"/><polygon points="47.36,37.25 47.36,25.60 55.68,29.79 64.00,17.45 72.32,29.79 80.64,25.60 80.64,37.25" fill="#C2C9D1" stroke="#6B7480" stroke-width="1.2" stroke-linejoin="round"/></g><text x="825" y="490" font-family="sans-serif" font-size="20" fill="#888" text-anchor="middle">元帥</text></svg>